HIERARCHY
ROOT Hips
{
    OFFSET   0.000000   0.000000   0.000000
    CHANNELS 6 Xposition Yposition Zposition Zrotation Xrotation Yrotation
    JOINT Chest
    {
        OFFSET   0.000000   8.007230   0.000000
        CHANNELS 3 Zrotation Xrotation Yrotation
        JOINT Chest2
        {
            OFFSET   0.000000  22.077100   0.000000
            CHANNELS 3 Zrotation Xrotation Yrotation
            JOINT Neck
            {
                OFFSET   0.000000  23.255100   0.000000
                CHANNELS 3 Zrotation Xrotation Yrotation
                JOINT Head
                {
                    OFFSET   0.000000  14.370100   1.956600
                    CHANNELS 3 Zrotation Xrotation Yrotation
                    End Site
                    {
                        OFFSET   0.000000  19.566000   0.000000
                    }
                }
            }
            JOINT LeftCollar
            {
                OFFSET   3.911900  19.017000  -0.467063
                CHANNELS 3 Zrotation Xrotation Yrotation
                JOINT LeftShoulder
                {
                    OFFSET  10.383700   0.000000   0.000000
                    CHANNELS 3 Zrotation Xrotation Yrotation
                    JOINT LeftElbow
                    {
                        OFFSET  26.662100   0.001193   0.000980
                        CHANNELS 3 Zrotation Xrotation Yrotation
                        JOINT LeftWrist
                        {
                            OFFSET  28.869000  -0.000059  -0.000082
                            CHANNELS 3 Zrotation Xrotation Yrotation
                            JOINT LeftFinger0
                            {
                                OFFSET   2.044650  -2.323450   3.252850
                                CHANNELS 3 Zrotation Xrotation Yrotation
                                JOINT LeftFinger01
                                {
                                    OFFSET   3.088130   0.000000   0.000000
                                    CHANNELS 3 Zrotation Xrotation Yrotation
                                    JOINT LeftFinger02
                                    {
                                        OFFSET   2.639460   0.000000   0.000000
                                        CHANNELS 3 Zrotation Xrotation Yrotation
                                        End Site
                                        {
                                            OFFSET   2.582190   0.000000   0.000000
                                        }
                                    }
                                }
                            }
                            JOINT LeftFinger1
                            {
                                OFFSET   8.364480   0.000000   3.252850
                                CHANNELS 3 Zrotation Xrotation Yrotation
                                JOINT LeftFinger11
                                {
                                    OFFSET   4.646930   0.000000   0.000000
                                    CHANNELS 3 Zrotation Xrotation Yrotation
                                    JOINT LeftFinger12
                                    {
                                        OFFSET   2.323470   0.000000   0.000000
                                        CHANNELS 3 Zrotation Xrotation Yrotation
                                        End Site
                                        {
                                            OFFSET   2.273050   0.000000   0.000000
                                        }
                                    }
                                }
                            }
                            JOINT LeftFinger2
                            {
                                OFFSET   8.364490   0.000016   1.078090
                                CHANNELS 3 Zrotation Xrotation Yrotation
                                JOINT LeftFinger21
                                {
                                    OFFSET   5.111610   0.000000   0.000000
                                    CHANNELS 3 Zrotation Xrotation Yrotation
                                    JOINT LeftFinger22
                                    {
                                        OFFSET   2.788150   0.000016   0.000000
                                        CHANNELS 3 Zrotation Xrotation Yrotation
                                        End Site
                                        {
                                            OFFSET   2.727660   0.000000   0.000000
                                        }
                                    }
                                }
                            }
                            JOINT LeftFinger3
                            {
                                OFFSET   7.899780   0.000015  -1.078090
                                CHANNELS 3 Zrotation Xrotation Yrotation
                                JOINT LeftFinger31
                                {
                                    OFFSET   4.646930   0.000000   0.000000
                                    CHANNELS 3 Zrotation Xrotation Yrotation
                                    JOINT LeftFinger32
                                    {
                                        OFFSET   2.323470   0.000000   0.000000
                                        CHANNELS 3 Zrotation Xrotation Yrotation
                                        End Site
                                        {
                                            OFFSET   2.273050   0.000000   0.000000
                                        }
                                    }
                                }
                            }
                            JOINT LeftFinger4
                            {
                                OFFSET   7.435090   0.000000  -3.252850
                                CHANNELS 3 Zrotation Xrotation Yrotation
                                JOINT LeftFinger41
                                {
                                    OFFSET   3.717550   0.000000   0.000000
                                    CHANNELS 3 Zrotation Xrotation Yrotation
                                    JOINT LeftFinger42
                                    {
                                        OFFSET   1.858770   0.000000   0.000000
                                        CHANNELS 3 Zrotation Xrotation Yrotation
                                        End Site
                                        {
                                            OFFSET   1.818440   0.000000   0.000000
                                        }
                                    }
                                }
                            }
                        }
                    }
                }
            }
            JOINT RightCollar
            {
                OFFSET  -3.911910  19.017000  -0.467062
                CHANNELS 3 Zrotation Xrotation Yrotation
                JOINT RightShoulder
                {
                    OFFSET -10.383700   0.000014   0.000000
                    CHANNELS 3 Zrotation Xrotation Yrotation
                    JOINT RightElbow
                    {
                        OFFSET -26.662100   0.001225   0.001091
                        CHANNELS 3 Zrotation Xrotation Yrotation
                        JOINT RightWrist
                        {
                            OFFSET -28.869000  -0.000020  -0.000085
                            CHANNELS 3 Zrotation Xrotation Yrotation
                            JOINT RightFinger0
                            {
                                OFFSET  -2.044650  -2.323490   3.252850
                                CHANNELS 3 Zrotation Xrotation Yrotation
                                JOINT RightFinger01
                                {
                                    OFFSET  -3.088130   0.000000   0.000000
                                    CHANNELS 3 Zrotation Xrotation Yrotation
                                    JOINT RightFinger02
                                    {
                                        OFFSET  -2.639460   0.000000   0.000000
                                        CHANNELS 3 Zrotation Xrotation Yrotation
                                        End Site
                                        {
                                            OFFSET  -2.582190   0.000000   0.000000
                                        }
                                    }
                                }
                            }
                            JOINT RightFinger1
                            {
                                OFFSET  -8.364480   0.000000   3.252850
                                CHANNELS 3 Zrotation Xrotation Yrotation
                                JOINT RightFinger11
                                {
                                    OFFSET  -4.646930   0.000000   0.000000
                                    CHANNELS 3 Zrotation Xrotation Yrotation
                                    JOINT RightFinger12
                                    {
                                        OFFSET  -2.323470   0.000000   0.000000
                                        CHANNELS 3 Zrotation Xrotation Yrotation
                                        End Site
                                        {
                                            OFFSET  -2.273050   0.000000   0.000000
                                        }
                                    }
                                }
                            }
                            JOINT RightFinger2
                            {
                                OFFSET  -8.364480   0.000000   1.078090
                                CHANNELS 3 Zrotation Xrotation Yrotation
                                JOINT RightFinger21
                                {
                                    OFFSET  -5.111620   0.000000   0.000000
                                    CHANNELS 3 Zrotation Xrotation Yrotation
                                    JOINT RightFinger22
                                    {
                                        OFFSET  -2.788160   0.000000   0.000000
                                        CHANNELS 3 Zrotation Xrotation Yrotation
                                        End Site
                                        {
                                            OFFSET  -2.727660   0.000000   0.000000
                                        }
                                    }
                                }
                            }
                            JOINT RightFinger3
                            {
                                OFFSET  -7.899780   0.000000  -1.078090
                                CHANNELS 3 Zrotation Xrotation Yrotation
                                JOINT RightFinger31
                                {
                                    OFFSET  -4.646930   0.000000   0.000000
                                    CHANNELS 3 Zrotation Xrotation Yrotation
                                    JOINT RightFinger32
                                    {
                                        OFFSET  -2.323470   0.000000   0.000000
                                        CHANNELS 3 Zrotation Xrotation Yrotation
                                        End Site
                                        {
                                            OFFSET  -2.273050   0.000000   0.000000
                                        }
                                    }
                                }
                            }
                            JOINT RightFinger4
                            {
                                OFFSET  -7.435090   0.000000  -3.252850
                                CHANNELS 3 Zrotation Xrotation Yrotation
                                JOINT RightFinger41
                                {
                                    OFFSET  -3.717550   0.000000   0.000000
                                    CHANNELS 3 Zrotation Xrotation Yrotation
                                    JOINT RightFinger42
                                    {
                                        OFFSET  -1.858760   0.000000   0.000000
                                        CHANNELS 3 Zrotation Xrotation Yrotation
                                        End Site
                                        {
                                            OFFSET  -1.818440   0.000000   0.000000
                                        }
                                    }
                                }
                            }
                        }
                    }
                }
            }
        }
    }
    JOINT LeftHip
    {
        OFFSET   9.783030   0.000000   0.000000
        CHANNELS 3 Zrotation Xrotation Yrotation
        JOINT LeftKnee
        {
            OFFSET   0.000063 -41.789100   0.000608
            CHANNELS 3 Zrotation Xrotation Yrotation
            JOINT LeftAnkle
            {
                OFFSET   0.000048 -41.133200  -0.000184
                CHANNELS 3 Zrotation Xrotation Yrotation
                JOINT LeftToe
                {
                    OFFSET   0.000000  -6.358960  14.674500
                    CHANNELS 3 Zrotation Xrotation Yrotation
                    End Site
                    {
                        OFFSET   0.000000   0.000000   3.913200
                    }
                }
            }
        }
    }
    JOINT RightHip
    {
        OFFSET  -9.783030   0.000000   0.000000
        CHANNELS 3 Zrotation Xrotation Yrotation
        JOINT RightKnee
        {
            OFFSET   0.000071 -41.789100   0.001239
            CHANNELS 3 Zrotation Xrotation Yrotation
            JOINT RightAnkle
            {
                OFFSET   0.000037 -41.133200  -0.000166
                CHANNELS 3 Zrotation Xrotation Yrotation
                JOINT RightToe
                {
                    OFFSET   0.000000  -6.358960  14.674500
                    CHANNELS 3 Zrotation Xrotation Yrotation
                    End Site
                    {
                        OFFSET   0.000000   0.000000   3.913200
                    }
                }
            }
        }
    }
}
MOTION
Frames: 4
Frame Time:   0.016667
 -2.994820  89.568100  -2.056370  -2.650590 -11.099700  -4.306900   0.971719   7.215920  -0.394330   2.018250  14.423900  -0.924240   1.371520  -1.341800   0.019801   2.258980  -2.729880   9.633350  -6.435400  -2.215010   2.443690 -70.189000  28.276300  -4.780230  -1.728140  -6.194150 -19.900800  17.049200 -11.808200   7.322350  39.030000  33.195600 -57.994300 -33.437600  -0.005309  -0.003455 -11.706600   0.002421  -0.036615 -33.727600   8.270130 -12.158800 -28.317300   0.017077  -0.002325 -19.822100   0.011999   0.001391 -28.769300   1.359290  -2.473800 -42.652600   0.032542   0.007771 -28.406600   0.017746   0.013554 -28.721200   1.357110  -2.475020 -40.161300   0.016075   0.001436 -26.747400   0.009864   0.004317 -33.357900   0.595626  -0.910577 -50.043800   0.011371   0.006032 -33.329200   0.004483   0.004974  12.441100  -0.309394  13.174000  62.692600  25.589000  -3.233020  -3.498210  -4.096600  16.370500 -18.137500 -13.115300 -12.600600 -38.040100  28.641700  61.108200  29.406300  -0.000406  -0.003052   9.703150   0.000578  -0.005502  32.118900   7.648370  11.970200  26.936200   0.000565  -0.008239  18.868400   0.002957  -0.006858  28.466000   3.211810   5.901810  37.736300  -0.002433   0.003821  25.132400   0.000159   0.002992  27.897300   1.593950   3.008320  31.579600  -0.005195  -0.002028  21.032000  -0.000171  -0.001559  37.080700  -0.274148  -0.362636  55.622300   0.008271  -0.003293  37.044400  -0.002021  -0.001396   2.653350  12.281500   3.790870   1.537950   0.057578   9.128310  -2.939260  -1.868220   0.505681  -0.000000   0.000000   0.000000   4.231570   8.682500   2.977140  -1.647300   6.570330  -8.348420  -1.368960  -5.066510  -5.341760   0.000000   0.000000   0.000000
 -2.966070  89.568100  -2.056510  -2.648910 -11.115200  -4.276710   0.972642   7.223660  -0.390950   2.019790  14.439400  -0.917672   1.366640  -1.348140   0.019810   2.250030  -2.737470   9.625870  -6.435180  -2.220080   2.443780 -70.183800  28.312300  -4.805680  -1.721760  -6.233270 -19.902400  17.070900 -11.832700   7.320690  39.029800  33.203100 -58.011600 -33.437600  -0.005325  -0.003461 -11.706600   0.002418  -0.041458 -33.742700   8.276980 -12.161800 -28.330400   0.025964  -0.013071 -19.831300   0.020047  -0.004781 -28.769100   1.361120  -2.477180 -42.681300   0.055430  -0.006218 -28.425800   0.036139   0.009478 -28.721000   1.358940  -2.478390 -40.181400   0.027366  -0.007932 -26.760800   0.018351   0.000197 -33.366000   0.595737  -0.910577 -50.056000   0.026627   0.001035 -33.337400   0.015026   0.005218  12.451700  -0.323302  13.190200  62.678300  25.598400  -3.240630  -3.508320  -4.078440  16.384200 -18.145200 -13.138700 -12.580700 -38.046600  28.640600  61.124700  29.387300  -0.000412  -0.003034   9.693660   0.000574  -0.005489  32.121100   7.660840  11.988100  26.940000   0.000560  -0.008228  18.868600   0.002952  -0.006847  28.463600   3.223070   5.922390  37.749300  -0.002447   0.003842  25.141100   0.000157   0.003006  27.896100   1.604850   3.028710  31.589900  -0.005213  -0.002024  21.038800  -0.000175  -0.001553  37.084900  -0.274255  -0.362773  55.628600   0.008268  -0.003292  37.048600  -0.002016  -0.001390   2.643510  12.288300   3.783480   1.525280   0.059003   9.100680  -2.923110  -1.874620   0.511875  -0.000000   0.000000   0.000000   4.223440   8.686760   2.956010  -1.656990   6.590670  -8.397520  -1.358150  -5.074240  -5.300090  -0.000000   0.000000   0.000000
 -2.918360  89.568100  -2.056740  -2.647090 -11.142900  -4.223230   0.975382   7.237210  -0.385074   2.024770  14.466600  -0.906408   1.358910  -1.357380   0.019836   2.235930  -2.748490   9.615270  -6.434850  -2.227700   2.443950 -70.171300  28.372800  -4.850860  -1.710760  -6.291890 -19.904700  17.098900 -11.862000   7.313830  39.033700  33.219900 -58.042600 -33.437600  -0.005342  -0.003466 -11.706600   0.002411  -0.046301 -33.764200   8.288810 -12.168900 -28.349500   0.034852  -0.028800 -19.844600   0.028095  -0.014289 -28.768700   1.365700  -2.485590 -42.721900   0.078318  -0.026559 -28.452800   0.054532   0.001887 -28.720700   1.363530  -2.486780 -40.211300   0.039323  -0.022289 -26.780700   0.029224  -0.006716 -33.378200   0.595893  -0.910576 -50.074300   0.048316  -0.007633 -33.349500   0.030554   0.005462  12.469500  -0.348188  13.214700  62.655800  25.620500  -3.258070  -3.531540  -4.048590  16.421100 -18.151900 -13.179300 -12.541200 -38.056400  28.636600  61.152900  29.355000  -0.000429  -0.002994   9.677500   0.000563  -0.005462  32.123800   7.680330  12.016300  26.945400   0.000543  -0.008201  18.868900   0.002939  -0.006824  28.459600   3.242270   5.957550  37.768600  -0.002480   0.003891  25.153900   0.000148   0.003044  27.894300   1.621940   3.060680  31.605600  -0.005259  -0.002013  21.049300  -0.000185  -0.001541  37.091800  -0.274405  -0.362966  55.639000   0.008259  -0.003289  37.055500  -0.002000  -0.001371   2.628280  12.308600   3.776130   1.500800   0.060431   9.051900  -2.894580  -1.881010   0.518069   0.000000   0.000000   0.000000   4.210930   8.697700   2.934940  -1.674710   6.624940  -8.474810  -1.339790  -5.089000  -5.258480   0.000000   0.000000   0.000000
 -2.880760  89.568200  -2.056930  -2.647480 -11.168800  -4.172660   0.979975   7.249530  -0.379705   2.033540  14.491300  -0.896404   1.354150  -1.362620   0.019879   2.227370  -2.754670   9.610260  -6.435330  -2.231870   2.444170 -70.151400  28.425800  -4.894670  -1.703340  -6.330520 -19.911800  17.102900 -11.867400   7.298370  39.050800  33.249800 -58.079800 -33.435700  -0.005332  -0.003446 -11.706500   0.002400  -0.037351 -33.772900   8.301860 -12.182600 -28.358700   0.033163  -0.037990 -19.851100   0.027664  -0.020591 -28.767900   1.374790  -2.502150 -42.737900   0.073435  -0.037980 -28.463500   0.053498  -0.008095 -28.719900   1.372610  -2.503330 -40.227500   0.040100  -0.032873 -26.791500   0.032008  -0.013773 -33.384300   0.595961  -0.908997 -50.083500   0.058796  -0.017315 -33.355600   0.039954   0.005401  12.483900  -0.370930  13.228100  62.640400  25.656100  -3.283000  -3.560050  -4.034610  16.479400 -18.142500 -13.214000 -12.495600 -38.058700  28.624400  61.181400  29.332000  -0.000460  -0.002943   9.666010   0.000544  -0.005428  32.125700   7.691370  12.031700  26.947900   0.000508  -0.008163  18.868100   0.002925  -0.006798  28.456600   3.257100   5.984720  37.780900  -0.002524   0.003960  25.162000   0.000133   0.003102  27.893300   1.631470   3.078430  31.617200  -0.005331  -0.001996  21.057000  -0.000200  -0.001531  37.098300  -0.274469  -0.363050  55.648700   0.008245  -0.003287  37.062000  -0.001972  -0.001333   2.618820  12.356000   3.776620   1.477990   0.017653   9.006980  -2.867170  -1.865950   0.516037   0.000000   0.000000   0.000000   4.204780   8.715860   2.935860  -1.691670   6.652030  -8.530820  -1.322110  -5.105610  -5.260390   0.000000   0.000000   0.000000
